<svg width="24" height="24" xmlns="http://www.w3.org/2000/svg">
 <g>
  <title>background</title>
  <rect x="-1" y="-1" width="26" height="26" id="canvas_background" fill="none"/>
 </g>

 <g>
  <title>Layer 1</title>
  <path d="m0,0l24,0l0,24l-24,0l0,-24z" fill="none" id="svg_1"/>
  <ellipse fill="#94bac7" stroke-width="null" stroke-opacity="null" cx="12" cy="12" id="svg_3" rx="10.704604" ry="10.704604" stroke="null"/>
  <g stroke="null" id="svg_8">
   <path fill="#412f49" stroke="null" id="svg_7" d="m14.59167,12.64792c-0.1879,0 -0.40171,0 -0.62848,0.03239c0.75158,0.54425 1.27639,1.26344 1.27639,2.23531l0,1.6198l3.8875,0l0,-1.6198c0,-1.50964 -3.02577,-2.2677 -4.53541,-2.2677m-5.18333,0c-1.50965,0 -4.53542,0.75806 -4.53542,2.2677l0,1.6198l9.07083,0l0,-1.6198c0,-1.50964 -3.02577,-2.2677 -4.53541,-2.2677m0,-1.29584a1.94375,1.94375 0 0 0 1.94374,-1.94374a1.94375,1.94375 0 0 0 -1.94374,-1.94375a1.94375,1.94375 0 0 0 -1.94375,1.94375a1.94375,1.94375 0 0 0 1.94375,1.94374m5.18333,0a1.94375,1.94375 0 0 0 1.94374,-1.94374a1.94375,1.94375 0 0 0 -1.94374,-1.94375a1.94375,1.94375 0 0 0 -1.94375,1.94375a1.94375,1.94375 0 0 0 1.94375,1.94374z"/>
  </g>
 </g>
</svg>